<?xml version="1.0" standalone="no"?>
<!DOCTYPE svg PUBLIC "-//W3C//DTD SVG 20010904//EN"
 "http://www.w3.org/TR/2001/REC-SVG-20010904/DTD/svg10.dtd">
<svg version="1.0" xmlns="http://www.w3.org/2000/svg"
 width="700.000000pt" height="700.000000pt" viewBox="0 0 700.000000 700.000000"
 preserveAspectRatio="xMidYMid meet">
<metadata>
Created by potrace 1.11, written by Peter Selinger 2001-2013
</metadata>
<g transform="translate(0.000000,700.000000) scale(0.100000,-0.100000)"
fill="#000000" stroke="none">
<path d="M3627 6878 c1149 -1153 1623 -1631 1623 -1636 0 -4 -8 -15 -17 -23
-10 -9 -402 -401 -870 -871 l-853 -855 870 -874 c479 -480 869 -877 868 -881
-2 -4 -390 -395 -862 -870 l-860 -863 874 -3 874 -2 863 867 c475 477 863 870
863 874 0 4 -388 397 -862 874 -475 476 -864 870 -866 874 -2 5 385 399 860
875 475 477 865 871 866 877 2 5 -389 403 -869 884 l-873 875 -875 0 -876 0
122 -122z"/>
<path d="M875 4367 l-875 -879 757 -760 c417 -418 812 -813 878 -879 l120
-119 875 0 875 0 -302 303 c-857 857 -1443 1449 -1443 1455 0 4 392 400 870
881 479 481 870 875 870 875 0 1 -394 2 -875 2 l-875 0 -875 -879z"/>
</g>
</svg>
