<svg version="1.1" viewBox="0.0 0.0 90.0 90.0" fill="none" stroke="none" stroke-linecap="square" stroke-miterlimit="10" xmlns:xlink="http://www.w3.org/1999/xlink" xmlns="http://www.w3.org/2000/svg"><clipPath id="p.0"><path d="m0 0l90.0 0l0 90.0l-90.0 0l0 -90.0z" clip-rule="nonzero"/></clipPath><g clip-path="url(#p.0)"><path fill="#000000" fill-opacity="0.0" d="m0 0l90.0 0l0 90.0l-90.0 0z" fill-rule="evenodd"/><defs><linearGradient id="p.1" gradientUnits="userSpaceOnUse" gradientTransform="matrix(9.294838002516235 0.0 0.0 9.294838002516235 0.0 0.0)" spreadMethod="pad" x1="0.1939947318943134" y1="0.1939610890215265" x2="0.1939610890215265" y2="9.488799091476876"><stop offset="0.0" stop-color="#4a25d2"/><stop offset="1.0" stop-color="#1e123d"/></linearGradient></defs><path fill="url(#p.1)" d="m1.8031496 45.0l0 0c0 -23.856962 19.339888 -43.19685 43.19685 -43.19685l0 0c11.456516 0 22.443802 4.5510836 30.544785 12.652065c8.100983 8.10098 12.652069 19.088268 12.652069 30.544785l0 0c0 23.856964 -19.33989 43.196854 -43.196854 43.196854l0 0c-23.856962 0 -43.19685 -19.33989 -43.19685 -43.196854z" fill-rule="evenodd"/></g></svg>