<?xml version="1.0" encoding="UTF-8" standalone="no"?>
<svg
   xmlns:dc="http://purl.org/dc/elements/1.1/"
   xmlns:cc="http://creativecommons.org/ns#"
   xmlns:rdf="http://www.w3.org/1999/02/22-rdf-syntax-ns#"
   xmlns:svg="http://www.w3.org/2000/svg"
   xmlns="http://www.w3.org/2000/svg"
   width="54mm"
   height="54mm"
   viewBox="0 0 54 54"
   version="1.1"
   id="svg8">
  <defs
     id="defs2">
    <rect
       x="44.601189"
       y="42.333332"
       width="102.05357"
       height="94.494049"
       id="rect12" />
    <mask
       maskUnits="userSpaceOnUse"
       id="mask-powermask-path-effect911">
      <path
         id="mask-powermask-path-effect911_box"
         style="fill:#ffffff;fill-opacity:1"
         d="M -0.61562729,-0.6156292 H 55.384373 V 55.384371 H -0.61562729 Z" />
      <g
         aria-label="CB"
         transform="matrix(1.3960818,0,0,1.5360369,-53.164182,-96.877587)"
         id="g909"
         style="font-style:normal;font-variant:normal;font-weight:normal;font-stretch:normal;font-size:50.79999999999999716px;line-height:1.25;font-family:Shockwave;-inkscape-font-specification:'Shockwave, Normal';font-variant-ligatures:normal;font-variant-caps:normal;font-variant-numeric:normal;font-variant-east-asian:normal;white-space:pre;shape-inside:url(#rect12);fill:#000000;fill-opacity:1;stroke:#000000;stroke-opacity:1">
        <path
           d="m 55.091762,82.194838 q 0.0762,-0.0254 0.2794,0.0508 0.2032,0.0762 0.381,0.2286 0.1778,0.127 0.1524,0.1778 -0.2286,0.5588 -0.8128,1.2192 -0.5588,0.635 -0.889,0.9144 -0.3048,0.254 -1.1176,0.9398 -1.7272,1.4732 -3.302,2.286 -0.9652,0.4826 -1.6256,0.4572 -0.6604,0 -1.651,-0.5334 -1.930399,-1.0414 -2.362199,-2.5908 -0.3556,-1.2954 0.1778,-3.556 0.380999,-1.5748 1.193799,-3.175 1.7526,-3.4544 4.191,-5.0546 0.762,-0.4826 1.6256,-0.2032 1.143,0.381 1.9812,1.143 0.6604,0.6858 0.635,1.4224 -0.0254,0.7366 -0.6096,1.4478 -0.0762,0.1016 -0.381,-0.0254 -0.3048,-0.127 -0.5842,-0.3302 -0.254,-0.2286 -0.254,-0.3302 0,-0.0762 0,-0.7366 0,-0.6858 -0.0508,-1.016 -0.6604,0.4572 -1.905,1.8796 -1.7526,2.0066 -2.7432,4.4704 -0.4826,1.2192 -0.7874,2.5146 -0.4318,1.8796 -0.1778,2.8702 0.0762,0.3302 0.2286,0.6096 0,0.0254 0.0254,0.0762 0.127,0 0.2794,-0.0254 0.3048,-0.0254 0.6858,-0.1524 0.9652,-0.2794 2.794,-1.397 1.2192,-0.7874 2.3622,-1.7018 0.127,-0.1016 0.9398,-0.8382 0.8382,-0.7366 1.3208,-1.0414 z m -8.128,5.5118 q 0.0254,-0.0254 -0.0254,-0.0762 0.0508,0.0508 0.0254,0.0762 z"
           style="font-style:normal;font-variant:normal;font-weight:normal;font-stretch:normal;font-size:25.4px;font-family:Shockwave;-inkscape-font-specification:'Shockwave, Normal';font-variant-ligatures:normal;font-variant-caps:normal;font-variant-numeric:normal;font-variant-east-asian:normal;fill:#000000;fill-opacity:1;stroke:#000000;stroke-opacity:1"
           id="path905" />
        <path
           d="m 70.004737,72.873038 q 1.524,0.9906 1.3716,2.2352 -0.0762,0.508 -0.4318,1.0414 -0.3302,0.5334 -0.5842,0.7874 -0.2286,0.2286 -0.7874,0.762 -2.2352,2.1336 -4.8006,3.5814 0.8382,0.0254 1.4224,0.1524 0.8382,0.1778 1.6256,0.6096 0.8128,0.4318 1.3208,1.016 0.381,0.5334 0.2794,1.016 -0.1016,0.4572 -0.5842,0.889 -0.6096,0.4826 -2.5146,1.524 -2.7178,1.4732 -5.4356,2.3622 -1.4732,0.4826 -2.9464,0.8128 -2.0828,0.4826 -3.2766,0.3302 -0.0762,-0.0254 -0.4318,-0.2032 -0.3556,-0.1524 -0.6604,-0.381 -0.3048,-0.2032 -0.2286,-0.2794 0.0762,-0.1016 0.1778,-0.1778 0.0762,-0.0508 0.2032,-0.1016 0.127,-0.0508 0.2032,-0.0762 0.0762,-0.0254 0.254,-0.0762 0.1778,-0.0254 0.2286,-0.0254 0.2286,-0.0508 0.7112,-0.1778 0.4826,-0.1016 0.7366,-0.1778 0.6858,-0.1778 1.397,-0.381 -0.0762,-0.4826 0.2032,-1.6002 0.3302,-1.1938 0.4572,-1.6002 0.1524,-0.4572 0.3556,-1.0922 -0.0254,0 -0.0508,0 0,0 0,0 -0.0762,0 -0.254,-0.0762 -0.1778,-0.0762 -0.4064,-0.1778 -0.2032,-0.1016 -0.4318,-0.2286 -0.2032,-0.127 -0.3302,-0.2286 -0.127,-0.127 -0.1016,-0.2032 -0.1778,-0.127 -0.2794,-0.2286 -0.0762,-0.1016 -0.0254,-0.127 0.3556,-0.254 1.6002,-0.508 0.4064,-0.1016 0.9398,-0.2032 0,-0.0254 0,-0.0508 0.0254,-0.0508 0.0254,-0.0762 0.0254,-0.0254 0.0508,-0.0762 0.381,-1.1176 0.5842,-1.6764 0.2032,-0.5842 0.5588,-1.524 0.381,-0.9398 0.762,-1.6764 0.381,-0.762 0.8128,-1.4732 0.1016,-0.127 0.7112,0.2286 0.6096,0.3302 0.5842,0.508 -0.381,1.7018 -1.4224,4.699 0.4064,-0.2032 0.7874,-0.4064 2.5908,-1.4478 4.6736,-3.2004 1.4478,-1.2446 1.9558,-1.9812 0.4826,-0.7112 0.4826,-1.27 0,-0.3556 -0.1778,-0.6604 -1.397,-0.2032 -2.4384,-0.2286 -1.4732,-0.0254 -3.2004,0.1524 -3.0988,0.3302 -6.2484,1.4732 -0.0762,0.0254 -0.254,-0.0762 -0.1778,-0.1016 -0.3302,-0.2286 -0.127,-0.127 -0.1016,-0.127 3.3274,-1.8542 7.112,-2.159 1.905,-0.1524 3.4036,0.0508 1.4986,0.1778 2.7432,0.9906 z m -3.2766,9.8298 q -1.3716,-0.0508 -2.7686,0.0508 -1.5494,0.1016 -2.8702,0.2794 -0.0254,0 -0.2032,0.0254 -0.1016,0.0508 -0.1524,0.0762 -0.4064,1.2446 -0.8382,2.6162 -0.0508,0.2032 -0.4572,1.4478 2.1336,-0.762 3.9624,-1.7272 1.1938,-0.6096 2.3368,-1.3208 0.0254,-0.0254 0.0762,-0.0762 0.381,-0.2032 0.5842,-0.3556 0.2032,-0.1524 0.4318,-0.4318 0.254,-0.2794 0.2794,-0.5842 -0.0762,0 -0.2032,0 -0.127,0 -0.1778,0 z m 2.8194,-9.6266 q 0.0254,0.0254 0.0508,0.0254 0,0 -0.0508,-0.0254 z"
           style="font-style:normal;font-variant:normal;font-weight:normal;font-stretch:normal;font-size:25.4px;font-family:Shockwave;-inkscape-font-specification:'Shockwave, Normal';font-variant-ligatures:normal;font-variant-caps:normal;font-variant-numeric:normal;font-variant-east-asian:normal;fill:#000000;fill-opacity:1;stroke:#000000;stroke-opacity:1"
           id="path907" />
      </g>
    </mask>
    <filter
       id="mask-powermask-path-effect911_inverse"
       style="color-interpolation-filters:sRGB"
       height="100"
       width="100"
       x="-50"
       y="-50">
      <feColorMatrix
         id="mask-powermask-path-effect911_primitive1"
         values="1"
         type="saturate"
         result="fbSourceGraphic" />
      <feColorMatrix
         id="mask-powermask-path-effect911_primitive2"
         values="-1 0 0 0 1 0 -1 0 0 1 0 0 -1 0 1 0 0 0 1 0 "
         in="fbSourceGraphic" />
    </filter>
  </defs>
  <metadata
     id="metadata5">
    <rdf:RDF>
      <cc:Work
         rdf:about="">
        <dc:format>image/svg+xml</dc:format>
        <dc:type
           rdf:resource="http://purl.org/dc/dcmitype/StillImage" />
        <dc:title></dc:title>
      </cc:Work>
    </rdf:RDF>
  </metadata>
  <g
     id="layer1"
     transform="translate(-0.38437271,-0.3843708)">
    <path
       id="path16"
       mask="url(#mask-powermask-path-effect911)"
       d="m 52.384373,27.384371 a 25,25 0 0 1 -25,25 25,25 0 0 1 -25.0000003,-25 25,25 0 0 1 25.0000003,-25.0000002 25,25 0 0 1 25,25.0000002 z"
       style="opacity:1;fill:#ffc107;fill-opacity:1;stroke:#ffc107;stroke-width:4;stroke-opacity:0.99" />
  </g>
</svg>
