<svg version="1.1" viewBox="0.0 0.0 594.3280839895014 614.0629921259842" fill="none" stroke="none" stroke-linecap="square" stroke-miterlimit="10" xmlns:xlink="http://www.w3.org/1999/xlink" xmlns="http://www.w3.org/2000/svg"><clipPath id="p.0"><path d="m0 0l594.32806 0l0 614.063l-594.32806 0l0 -614.063z" clip-rule="nonzero"/></clipPath><g clip-path="url(#p.0)"><path fill="#000000" fill-opacity="0.0" d="m0 0l594.32806 0l0 614.063l-594.32806 0z" fill-rule="evenodd"/><defs><radialGradient id="p.1" gradientUnits="userSpaceOnUse" gradientTransform="matrix(-14.63724124282945 0.0 0.0 -14.63724124282945 0.0 0.0)" spreadMethod="pad" cx="-10.162837589677915" cy="-21.048671882750238" fx="-10.162837589677915" fy="-21.048671882750238" r="14.63724136352539"><stop offset="0.0" stop-color="#365cfb"/><stop offset="1.0" stop-color="#6057f9"/></radialGradient></defs><path fill="url(#p.1)" d="m297.5118 462.28348l-148.7559 0l-148.7559 -154.189l148.7559 -154.18896l148.7559 0l-148.7559 154.18896z" fill-rule="evenodd"/><defs><linearGradient id="p.2" gradientUnits="userSpaceOnUse" gradientTransform="matrix(17.56078564882812 0.0 0.0 17.56078564882812 0.0 0.0)" spreadMethod="pad" x1="33.88365611574741" y1="35.05430867943434" x2="33.88384994940947" y2="17.49352303167598"><stop offset="0.0" stop-color="#6057f9"/><stop offset="1.0" stop-color="#365cfb"/></linearGradient></defs><path fill="url(#p.2)" d="m297.5118 307.2l148.75592 0l148.75589 154.18896l-148.75589 154.18896l-148.75592 0l148.75592 -154.18896z" fill-rule="evenodd"/><defs><linearGradient id="p.3" gradientUnits="userSpaceOnUse" gradientTransform="matrix(17.560724066727076 0.0 0.0 17.560724066727076 0.0 0.0)" spreadMethod="pad" x1="16.941887469624795" y1="-6.132946625576218E-5" x2="16.94182441507987" y2="17.560662737147616"><stop offset="0.0" stop-color="#6057f9"/><stop offset="1.0" stop-color="#365cfb"/></linearGradient></defs><path fill="url(#p.3)" d="m297.5118 0l148.75592 0l148.75589 154.18898l-148.75589 154.18898l-148.75592 0l148.75592 -154.18898z" fill-rule="evenodd"/></g></svg>